<?xml version="1.0" encoding="UTF-8"?>
<svg id="SODA_RZ_Neue_Unterzeile_" data-name="SODA RZ (Neue Unterzeile)" xmlns="http://www.w3.org/2000/svg" version="1.1" viewBox="0 0 340.16 340.16">
  <defs>
    <style>
      .cls-1 {
        fill: none;
      }

      .cls-1, .cls-2, .cls-3 {
        stroke-width: 0px;
      }

      .cls-2 {
        fill: #00863e;
      }

      .cls-3 {
        fill: #fff;
      }
    </style>
  </defs>
  <circle class="cls-2" cx="170.08" cy="170.08" r="168.66"/>
  <rect id="Bounding_Box" data-name="Bounding Box" class="cls-1" x="-.01" width="340.16" height="340.16"/>
  <g>
    <g>
      <g>
        <path class="cls-3" d="M39.53,173.17l2.78-3.19c6.29,5.88,12.09,8.5,20.51,8.5s14.46-4.82,14.46-11.36v-.16c0-6.05-3.19-9.56-16.18-12.17-13.81-2.86-19.28-7.35-19.28-16.1v-.16c0-8.5,7.76-15.03,18.38-15.03,8.25,0,13.81,2.29,19.61,6.95l-2.7,3.35c-5.48-4.66-10.79-6.46-17.08-6.46-8.5,0-13.97,4.9-13.97,10.79v.16c0,6.13,3.1,9.64,16.67,12.5,13.32,2.7,18.79,7.35,18.79,15.77v.16c0,9.23-7.93,15.61-18.96,15.61-9.15,0-16.18-3.02-23.04-9.15Z"/>
        <path class="cls-3" d="M183.37,124.31h19.04c17.98,0,30.4,12.34,30.4,28.44v.16c0,16.1-12.42,28.6-30.4,28.6h-19.04v-57.2ZM187.62,128.23v49.35h14.79c15.93,0,25.98-10.87,25.98-24.51v-.16c0-13.48-10.05-24.68-25.98-24.68h-14.79Z"/>
        <path class="cls-3" d="M269.59,123.9h4.09l26.64,57.61h-4.66l-7.27-16.02h-33.75l-7.27,16.02h-4.41l26.64-57.61ZM286.59,161.65l-15.03-33.09-15.12,33.09h30.15Z"/>
      </g>
      <path class="cls-3" d="M110.24,123.37c0-1.23,1-2.24,2.24-2.24s2.24,1,2.24,2.24-1,2.24-2.24,2.24-2.24-1-2.24-2.24ZM112.48,150.56c2.06,0,3.73-1.67,3.73-3.73s-1.67-3.73-3.73-3.73-3.73,1.67-3.73,3.73,1.67,3.73,3.73,3.73ZM112.48,138.08c1.64,0,2.98-1.34,2.98-2.98s-1.34-2.98-2.98-2.98-2.98,1.34-2.98,2.98,1.34,2.98,2.98,2.98ZM100.74,137.34c1.23,0,2.24-1,2.24-2.24s-1-2.24-2.24-2.24-2.24,1-2.24,2.24,1,2.24,2.24,2.24ZM100.74,142.36c-2.47,0-4.47,2-4.47,4.47s2,4.47,4.47,4.47,4.47-2,4.47-4.47-2-4.47-4.47-4.47ZM100.74,155.58c-1.65,0-2.98,1.34-2.98,2.98s1.34,2.98,2.98,2.98,2.98-1.34,2.98-2.98-1.34-2.98-2.98-2.98ZM100.74,168.06c-1.23,0-2.24,1-2.24,2.24s1,2.24,2.24,2.24,2.24-1,2.24-2.24-1-2.24-2.24-2.24ZM159.43,137.34c1.23,0,2.24-1,2.24-2.24s-1-2.24-2.24-2.24-2.24,1-2.24,2.24,1,2.24,2.24,2.24ZM112.48,179.8c-1.23,0-2.24,1-2.24,2.24s1,2.24,2.24,2.24,2.24-1,2.24-2.24-1-2.24-2.24-2.24ZM159.43,150.56c2.06,0,3.73-1.67,3.73-3.73s-1.67-3.73-3.73-3.73-3.73,1.67-3.73,3.73,1.67,3.73,3.73,3.73ZM135.96,126.35c1.64,0,2.98-1.34,2.98-2.98s-1.34-2.98-2.98-2.98-2.98,1.34-2.98,2.98,1.34,2.98,2.98,2.98ZM124.22,131.37c-2.06,0-3.73,1.67-3.73,3.73s1.67,3.73,3.73,3.73,3.73-1.67,3.73-3.73-1.67-3.73-3.73-3.73ZM135.96,139.57c2.47,0,4.47-2,4.47-4.47s-2-4.47-4.47-4.47-4.47,2-4.47,4.47,2,4.47,4.47,4.47ZM124.22,128.58c2.88,0,5.22-2.34,5.22-5.22s-2.34-5.22-5.22-5.22-5.22,2.34-5.22,5.22,2.34,5.22,5.22,5.22ZM132.97,146.83c0,1.64,1.34,2.98,2.98,2.98s2.98-1.34,2.98-2.98-1.34-2.98-2.98-2.98-2.98,1.34-2.98,2.98ZM147.69,125.6c1.23,0,2.24-1,2.24-2.24s-1-2.24-2.24-2.24-2.24,1-2.24,2.24,1,2.24,2.24,2.24ZM147.69,165.83c-2.47,0-4.47,2-4.47,4.47s2,4.47,4.47,4.47,4.47-2,4.47-4.47-2-4.47-4.47-4.47ZM147.69,179.8c-1.23,0-2.24,1-2.24,2.24s1,2.24,2.24,2.24,2.24-1,2.24-2.24-1-2.24-2.24-2.24ZM150.68,158.57c0-1.64-1.34-2.98-2.98-2.98s-2.98,1.34-2.98,2.98,1.34,2.98,2.98,2.98,2.98-1.34,2.98-2.98ZM135.96,152.6c-3.29,0-5.97,2.68-5.97,5.97s2.68,5.97,5.97,5.97,5.97-2.68,5.97-5.97-2.68-5.97-5.97-5.97ZM112.48,166.57c-2.06,0-3.73,1.67-3.73,3.73s1.67,3.73,3.73,3.73,3.73-1.67,3.73-3.73-1.67-3.73-3.73-3.73ZM147.69,142.36c-2.47,0-4.47,2-4.47,4.47s2,4.47,4.47,4.47,4.47-2,4.47-4.47-2-4.47-4.47-4.47ZM159.43,168.06c-1.23,0-2.24,1-2.24,2.24s1,2.24,2.24,2.24,2.24-1,2.24-2.24-1-2.24-2.24-2.24ZM159.43,153.35c-2.88,0-5.22,2.34-5.22,5.22s2.34,5.22,5.22,5.22,5.22-2.34,5.22-5.22-2.34-5.22-5.22-5.22ZM124.22,178.31c-2.06,0-3.73,1.67-3.73,3.73s1.67,3.73,3.73,3.73,3.73-1.67,3.73-3.73-1.67-3.73-3.73-3.73ZM138.94,170.3c0-1.64-1.34-2.98-2.98-2.98s-2.98,1.34-2.98,2.98,1.34,2.98,2.98,2.98,2.98-1.34,2.98-2.98ZM124.22,166.57c-2.06,0-3.73,1.67-3.73,3.73s1.67,3.73,3.73,3.73,3.73-1.67,3.73-3.73-1.67-3.73-3.73-3.73ZM112.48,153.35c-2.88,0-5.22,2.34-5.22,5.22s2.34,5.22,5.22,5.22,5.22-2.34,5.22-5.22-2.34-5.22-5.22-5.22ZM135.96,176.82c-2.88,0-5.22,2.34-5.22,5.22s2.34,5.22,5.22,5.22,5.22-2.34,5.22-5.22-2.34-5.22-5.22-5.22ZM127.2,158.57c0-1.64-1.34-2.98-2.98-2.98s-2.98,1.34-2.98,2.98,1.34,2.98,2.98,2.98,2.98-1.34,2.98-2.98ZM124.22,140.87c-3.29,0-5.97,2.68-5.97,5.97s2.68,5.97,5.97,5.97,5.97-2.68,5.97-5.97-2.68-5.97-5.97-5.97ZM147.7,129.88c-2.88,0-5.22,2.34-5.22,5.22s2.34,5.22,5.22,5.22,5.22-2.34,5.22-5.22-2.34-5.22-5.22-5.22Z"/>
    </g>
    <g>
      <path class="cls-3" d="M41.42,219.29l.91-1.08c1.36,1.23,2.66,1.84,4.47,1.84s2.91-.93,2.91-2.22v-.04c0-1.21-.65-1.9-3.39-2.48-3-.65-4.38-1.62-4.38-3.76v-.04c0-2.05,1.81-3.56,4.29-3.56,1.9,0,3.26.54,4.58,1.6l-.86,1.14c-1.21-.99-2.42-1.42-3.76-1.42-1.7,0-2.78.93-2.78,2.11v.04c0,1.23.67,1.92,3.54,2.53,2.91.63,4.25,1.7,4.25,3.69v.04c0,2.24-1.86,3.69-4.45,3.69-2.07,0-3.76-.69-5.33-2.09Z"/>
      <path class="cls-3" d="M53.36,216.42v-.04c0-2.72,2.12-5.03,5.03-5.03s5.01,2.27,5.01,4.99v.04c0,2.72-2.14,5.03-5.05,5.03s-4.99-2.27-4.99-4.99ZM61.93,216.42v-.04c0-2.07-1.55-3.76-3.58-3.76s-3.52,1.7-3.52,3.73v.04c0,2.07,1.53,3.75,3.56,3.75s3.54-1.68,3.54-3.71Z"/>
      <path class="cls-3" d="M65.39,216.42v-.04c0-2.72,2.12-5.03,4.94-5.03,1.83,0,2.96.76,3.86,1.71l-.95,1.01c-.76-.8-1.62-1.45-2.93-1.45-1.96,0-3.45,1.66-3.45,3.73v.04c0,2.09,1.53,3.75,3.54,3.75,1.23,0,2.18-.62,2.94-1.43l.91.86c-.97,1.08-2.12,1.86-3.93,1.86-2.81,0-4.94-2.29-4.94-4.99Z"/>
      <path class="cls-3" d="M76.66,207.87h1.64v1.58h-1.64v-1.58ZM76.75,211.56h1.43v9.63h-1.43v-9.63Z"/>
      <path class="cls-3" d="M80.79,218.39v-.04c0-2.03,1.68-3.11,4.12-3.11,1.23,0,2.1.17,2.96.41v-.34c0-1.73-1.06-2.63-2.87-2.63-1.14,0-2.03.3-2.93.71l-.43-1.17c1.06-.48,2.1-.8,3.5-.8s2.4.35,3.11,1.06c.65.65.99,1.58.99,2.81v5.89h-1.38v-1.45c-.67.88-1.79,1.66-3.48,1.66-1.79,0-3.6-1.02-3.6-3ZM87.89,217.65v-.93c-.71-.21-1.66-.41-2.83-.41-1.81,0-2.81.78-2.81,1.99v.04c0,1.21,1.12,1.92,2.42,1.92,1.77,0,3.22-1.08,3.22-2.61Z"/>
      <path class="cls-3" d="M92.43,207.59h1.43v13.6h-1.43v-13.6Z"/>
      <path class="cls-3" d="M103.03,208.15h4.53c4.1,0,6.93,2.81,6.93,6.48v.04c0,3.67-2.83,6.52-6.93,6.52h-4.53v-13.04ZM104.5,209.51v10.32h3.06c3.3,0,5.4-2.24,5.4-5.12v-.04c0-2.89-2.11-5.16-5.4-5.16h-3.06Z"/>
      <path class="cls-3" d="M116.63,218.39v-.04c0-2.03,1.68-3.11,4.12-3.11,1.23,0,2.1.17,2.96.41v-.34c0-1.73-1.06-2.63-2.87-2.63-1.14,0-2.03.3-2.93.71l-.43-1.17c1.06-.48,2.1-.8,3.5-.8s2.4.35,3.11,1.06c.65.65.99,1.58.99,2.81v5.89h-1.38v-1.45c-.67.88-1.79,1.66-3.48,1.66-1.79,0-3.6-1.02-3.6-3ZM123.73,217.65v-.93c-.71-.21-1.66-.41-2.83-.41-1.81,0-2.81.78-2.81,1.99v.04c0,1.21,1.12,1.92,2.42,1.92,1.77,0,3.22-1.08,3.22-2.61Z"/>
      <path class="cls-3" d="M128.55,218.64v-5.81h-1.34v-1.27h1.34v-2.91h1.43v2.91h3.06v1.27h-3.06v5.63c0,1.17.65,1.6,1.62,1.6.48,0,.89-.09,1.4-.34v1.23c-.5.26-1.04.41-1.73.41-1.55,0-2.72-.76-2.72-2.72Z"/>
      <path class="cls-3" d="M134.84,218.39v-.04c0-2.03,1.68-3.11,4.12-3.11,1.23,0,2.1.17,2.96.41v-.34c0-1.73-1.06-2.63-2.87-2.63-1.14,0-2.03.3-2.93.71l-.43-1.17c1.06-.48,2.1-.8,3.5-.8s2.4.35,3.11,1.06c.65.65.99,1.58.99,2.81v5.89h-1.38v-1.45c-.67.88-1.79,1.66-3.48,1.66-1.79,0-3.6-1.02-3.6-3ZM141.94,217.65v-.93c-.71-.21-1.66-.41-2.83-.41-1.81,0-2.81.78-2.81,1.99v.04c0,1.21,1.12,1.92,2.42,1.92,1.77,0,3.22-1.08,3.22-2.61Z"/>
      <path class="cls-3" d="M151.32,219.29l.91-1.08c1.36,1.23,2.66,1.84,4.47,1.84s2.91-.93,2.91-2.22v-.04c0-1.21-.65-1.9-3.39-2.48-3-.65-4.38-1.62-4.38-3.76v-.04c0-2.05,1.81-3.56,4.29-3.56,1.9,0,3.26.54,4.58,1.6l-.86,1.14c-1.21-.99-2.42-1.42-3.76-1.42-1.7,0-2.78.93-2.78,2.11v.04c0,1.23.67,1.92,3.54,2.53,2.91.63,4.25,1.7,4.25,3.69v.04c0,2.24-1.86,3.69-4.45,3.69-2.07,0-3.76-.69-5.33-2.09Z"/>
      <path class="cls-3" d="M163.26,216.42v-.04c0-2.72,2.12-5.03,4.94-5.03,1.83,0,2.96.76,3.86,1.71l-.95,1.01c-.76-.8-1.62-1.45-2.93-1.45-1.96,0-3.45,1.66-3.45,3.73v.04c0,2.09,1.53,3.75,3.54,3.75,1.23,0,2.18-.62,2.94-1.43l.91.86c-.97,1.08-2.12,1.86-3.93,1.86-2.81,0-4.94-2.29-4.94-4.99Z"/>
      <path class="cls-3" d="M174.53,207.87h1.64v1.58h-1.64v-1.58ZM174.63,211.56h1.43v9.63h-1.43v-9.63Z"/>
      <path class="cls-3" d="M178.8,216.4v-.04c0-2.78,1.96-5.01,4.62-5.01,2.85,0,4.49,2.27,4.49,5.09,0,.19,0,.3-.02.47h-7.64c.2,2.09,1.68,3.26,3.39,3.26,1.32,0,2.25-.54,3.04-1.36l.89.8c-.97,1.08-2.14,1.81-3.97,1.81-2.65,0-4.81-2.03-4.81-5.01ZM186.45,215.84c-.15-1.75-1.15-3.28-3.07-3.28-1.68,0-2.94,1.4-3.13,3.28h6.2Z"/>
      <path class="cls-3" d="M190.42,211.56h1.43v1.68c.63-1.04,1.64-1.88,3.3-1.88,2.33,0,3.69,1.57,3.69,3.86v5.98h-1.43v-5.63c0-1.79-.97-2.91-2.66-2.91s-2.89,1.21-2.89,3.02v5.52h-1.43v-9.63Z"/>
      <path class="cls-3" d="M201.3,216.42v-.04c0-2.72,2.12-5.03,4.94-5.03,1.83,0,2.96.76,3.86,1.71l-.95,1.01c-.76-.8-1.62-1.45-2.93-1.45-1.96,0-3.45,1.66-3.45,3.73v.04c0,2.09,1.53,3.75,3.54,3.75,1.23,0,2.18-.62,2.94-1.43l.91.86c-.97,1.08-2.12,1.86-3.93,1.86-2.81,0-4.94-2.29-4.94-4.99Z"/>
      <path class="cls-3" d="M211.65,216.4v-.04c0-2.78,1.96-5.01,4.62-5.01,2.85,0,4.49,2.27,4.49,5.09,0,.19,0,.3-.02.47h-7.64c.2,2.09,1.68,3.26,3.39,3.26,1.32,0,2.25-.54,3.04-1.36l.89.8c-.97,1.08-2.14,1.81-3.97,1.81-2.65,0-4.81-2.03-4.81-5.01ZM219.31,215.84c-.15-1.75-1.15-3.28-3.07-3.28-1.68,0-2.94,1.4-3.13,3.28h6.2Z"/>
      <path class="cls-3" d="M230.15,215.83h-3.86v-1.34h3.86v-3.84h1.4v3.84h3.86v1.34h-3.86v3.84h-1.4v-3.84Z"/>
      <path class="cls-3" d="M245.76,208.05h1.38l5.94,13.14h-1.58l-1.53-3.45h-7.1l-1.55,3.45h-1.51l5.94-13.14ZM249.39,216.42l-2.96-6.65-2.98,6.65h5.94Z"/>
      <path class="cls-3" d="M255.77,208.15h1.47v13.04h-1.47v-13.04Z"/>
      <path class="cls-3" d="M266.65,208.15h1.47v11.68h7.34v1.36h-8.81v-13.04Z"/>
      <path class="cls-3" d="M277.14,218.39v-.04c0-2.03,1.68-3.11,4.12-3.11,1.23,0,2.1.17,2.96.41v-.34c0-1.73-1.06-2.63-2.87-2.63-1.14,0-2.03.3-2.93.71l-.43-1.17c1.06-.48,2.1-.8,3.5-.8s2.4.35,3.11,1.06c.65.65.99,1.58.99,2.81v5.89h-1.38v-1.45c-.67.88-1.79,1.66-3.48,1.66-1.79,0-3.6-1.02-3.6-3ZM284.23,217.65v-.93c-.71-.21-1.66-.41-2.83-.41-1.81,0-2.81.78-2.81,1.99v.04c0,1.21,1.12,1.92,2.42,1.92,1.77,0,3.22-1.08,3.22-2.61Z"/>
      <path class="cls-3" d="M290.08,219.34v1.84h-1.43v-13.6h1.43v5.91c.78-1.15,1.92-2.14,3.69-2.14,2.31,0,4.6,1.83,4.6,4.99v.04c0,3.15-2.27,5.01-4.6,5.01-1.79,0-2.94-.97-3.69-2.05ZM296.9,216.4v-.04c0-2.27-1.57-3.73-3.39-3.73s-3.48,1.51-3.48,3.71v.04c0,2.24,1.7,3.73,3.48,3.73s3.39-1.38,3.39-3.71Z"/>
    </g>
  </g>
</svg>