<svg xmlns="http://www.w3.org/2000/svg" viewBox="0 0 320 320"><defs><style>.a{fill:#23272a;}.b{fill:#cfff63;}.c{fill:#ff7550;}.d{fill:#b6a6f6;}</style></defs><circle class="a" cx="160" cy="160" r="156.84"/><circle class="b" cx="157.22" cy="68.7" r="40.24"/><path class="a" d="M133.3,92.64l19.55-50.59h9l19.3,50.59h-8.81l-5-13.86H147l-5.18,13.86Zm16.43-21.23h15.11l-7.3-20.24h-.25Z"/><rect class="c" x="116.67" y="212.79" width="80.73" height="74.75" rx="7.23"/><path class="a" d="M133.24,274.2l19.55-50.59h9l19.3,50.59h-8.8l-5-13.87H147L141.8,274.2ZM149.67,253h15.11l-7.31-20.24h-.25Z"/><rect class="d" x="94.11" y="119.86" width="131.77" height="80.31" rx="40.16"/><path class="a" d="M141.18,183.64V133.05h16.68a27.11,27.11,0,0,1,13.21,3.06,21.43,21.43,0,0,1,8.68,8.74,30.86,30.86,0,0,1,0,26.92,21.54,21.54,0,0,1-8.71,8.78,26.94,26.94,0,0,1-13.18,3.09Zm8.44-7.37h8.24a16.77,16.77,0,0,0,9-2.28,14.66,14.66,0,0,0,5.55-6.28,21.51,21.51,0,0,0,1.91-9.36q0-8.07-4.25-13t-12.24-4.93h-8.24Z"/></svg>